<?xml version="1.0" encoding="UTF-8"?>
<svg xmlns="http://www.w3.org/2000/svg" width="1200" height="630" viewBox="0 0 1200 630" role="img" aria-label="关于">
  <rect width="1200" height="630" fill="#f6f1e8" />
  <rect x="0" y="0" width="1200" height="630" fill="#fffdf7" opacity="0.42" />
  <circle cx="948" cy="238" r="146" fill="#2f6f68" opacity="0.18" />
       <path d="M760 438 C840 350 910 470 1000 380 S1140 360 1182 292" fill="none" stroke="#2f6f68" stroke-width="22" stroke-linecap="round" opacity="0.34" />
       <path d="M780 160 C860 110 930 178 1010 130 S1134 116 1190 72" fill="none" stroke="#b86b3f" stroke-width="16" stroke-linecap="round" opacity="0.28" />
       <circle cx="924" cy="308" r="26" fill="#b86b3f" opacity="0.82" />
       <circle cx="1054" cy="214" r="18" fill="#2f6f68" opacity="0.76" />
  <rect x="0" y="0" width="760" height="630" fill="#f6f1e8" opacity="0.96" />
  <path d="M0 512 C180 448 296 570 462 508 S650 448 760 520 L760 630 L0 630 Z" fill="#2f6f68" opacity="0.12" />
  <rect x="72" y="70" width="74" height="6" rx="3" fill="#b86b3f" />
  <text x="72" y="118" fill="#b86b3f" font-family="system-ui, -apple-system, BlinkMacSystemFont, 'Segoe UI', sans-serif" font-size="26" font-weight="800" letter-spacing="3">ABOUT</text>
  <text x="72" y="204" fill="#214b4a" font-family="system-ui, -apple-system, BlinkMacSystemFont, 'Segoe UI', sans-serif" font-size="64" font-weight="900">关于</text>
  <text x="76" y="444" fill="#214b4a" opacity="0.74" font-family="system-ui, -apple-system, BlinkMacSystemFont, 'Segoe UI', sans-serif" font-size="25">这个站点用于长期整理旅行地点、访问记录、文章和待补事项。</text>
  <text x="76" y="552" fill="#2f6f68" font-family="system-ui, -apple-system, BlinkMacSystemFont, 'Segoe UI', sans-serif" font-size="22" font-weight="800">文件驱动 / 地图回看</text>
  <text x="76" y="590" fill="#214b4a" opacity="0.58" font-family="system-ui, -apple-system, BlinkMacSystemFont, 'Segoe UI', sans-serif" font-size="20">行旅册 · 把走过的地方，整理成可以再次出发的地图。</text>
</svg>